PathFileType	4	(x/y/z)	S09_P20_T28
DataRate	CameraRate	NumFrames	NumMarkers	Units	OrigDataRate	OrigDataStartFrame	OrigNumFrames
240	240	8	51	mm	240	1	414
Frame#	Time	Sternum			R.Acromium			L.Acromium			Top.Head			R.ASIS			L.ASIS			R.PSIS			L.PSIS			R.Great.Tro			L.Great.Tro			R.Iliac.Crest			L.Iliac.Crest			V.Sacral			R.Thigh.Upper.Post			R.Thigh.Lower.Ant			R.Thigh.Lower.Post			R.Thigh.Upper.Ant			R.Knee.Lat			R.Knee.Med			R.Shank.Upper.Post			R.Shank.Lower.Ant			R.Shank.Lower.Post			R.Shank.Upper.Ant			R.Ankle.Lat			R.Ankle.Med			R.Heel.Upper			R.Heel.Med			R.Heel.Lat			R.Toe.Lat			R.Toe.Med			R.Toe.Tip			L.Thigh.Upper.Post			L.Thigh.Lower.Ant			L.Thigh.Lower.Post			L.Thigh.Upper.Ant			L.Knee.Lat			L.Knee.Med			L.Shank.Upper.Post			L.Shank.Lower.Ant			L.Shank.Lower.Post			L.Shank.Upper.Ant			L.Ankle.Lat			L.Ankle.Med			L.Heel.Upper			L.Heel.Med			L.Heel.Lat			L.Toe.Lat			L.Toe.Med			L.Toe.Tip			Cervical.Spine			Back			
		X1	Y1	Z1	X2	Y2	Z2	X3	Y3	Z3	X4	Y4	Z4	X5	Y5	Z5	X6	Y6	Z6	X7	Y7	Z7	X8	Y8	Z8	X9	Y9	Z9	X10	Y10	Z10	X11	Y11	Z11	X12	Y12	Z12	X13	Y13	Z13	X14	Y14	Z14	X15	Y15	Z15	X16	Y16	Z16	X17	Y17	Z17	X18	Y18	Z18	X19	Y19	Z19	X20	Y20	Z20	X21	Y21	Z21	X22	Y22	Z22	X23	Y23	Z23	X24	Y24	Z24	X25	Y25	Z25	X26	Y26	Z26	X27	Y27	Z27	X28	Y28	Z28	X29	Y29	Z29	X30	Y30	Z30	X31	Y31	Z31	X32	Y32	Z32	X33	Y33	Z33	X34	Y34	Z34	X35	Y35	Z35	X36	Y36	Z36	X37	Y37	Z37	X38	Y38	Z38	X39	Y39	Z39	X40	Y40	Z40	X41	Y41	Z41	X42	Y42	Z42	X43	Y43	Z43	X44	Y44	Z44	X45	Y45	Z45	X46	Y46	Z46	X47	Y47	Z47	X48	Y48	Z48	X49	Y49	Z49	X50	Y50	Z50	X51	Y51	Z51	

1	0	NaN	NaN	NaN	-1519.6	1437.7	516.6	-1548.4	1435	217.8	-1515	1742.7	363.41	NaN	NaN	NaN	NaN	NaN	NaN	NaN	NaN	NaN	NaN	NaN	NaN	-1575.6	939.26	562.14	-1544.4	930.73	173.88	-1557.7	1100.9	531.19	-1573.6	1116.5	209.92	-1710.6	1022.2	357.95	NaN	NaN	NaN	-1595	589.98	488.47	-1674.6	617.52	499.94	-1583	676.02	519.07	-1652.7	521.92	477.83	NaN	NaN	NaN	-1767.3	371.61	476.86	-1715.3	294.84	465.7	-1793.4	299.63	464.56	NaN	NaN	NaN	-1815.7	105.4	441.62	-1776.1	117.52	356.89	-1876.1	94.898	389.33	-1865	60.617	362.94	-1877.1	67.487	426.37	-1719.9	47.253	484.08	-1667	47.326	380.22	-1619.9	57.931	427.94	-1543.8	665.77	220.31	-1450.3	592.27	215.32	-1507.1	583.44	239.26	-1471.9	668.79	194.23	-1427.7	514.93	228.24	-1419.6	526.69	364.97	-1415.7	375.89	220.1	-1317.8	324.14	227.87	-1381.2	306.85	225.87	-1352.9	393.16	222.6	-1259.7	134.18	246.62	-1238.6	144.68	338.81	-1301.2	66.672	308.38	-1276.3	56.045	339.71	-1287	40.618	280.56	-1137.9	116.18	211.33	-1104.1	150.6	316.03	-1071.1	183.56	251.21	-1621.5	1491.3	385.19	-1676.2	1227.5	374.24
2	0.0041667	NaN	NaN	NaN	-1514.7	1437	516.22	-1543.6	1434.4	217.36	-1509.9	1742	363	NaN	NaN	NaN	NaN	NaN	NaN	NaN	NaN	NaN	NaN	NaN	NaN	-1570.7	938.74	561.89	-1538.7	930.01	173.63	-1552.7	1100.3	530.72	-1568.5	1115.7	209.47	-1705.6	1021.5	357.54	NaN	NaN	NaN	-1591	589.41	488.44	-1670.1	617.08	499.49	-1578.2	675.47	518.75	-1648.1	521.23	477.51	NaN	NaN	NaN	-1763.8	372.08	476.62	-1712.7	294.82	465.45	-1790.8	300.21	464.32	NaN	NaN	NaN	-1814.7	106.56	441.55	-1775.8	118.27	356.77	-1875.6	96.023	389.29	-1864.8	61.707	362.89	-1876.8	68.566	426.3	-1719.6	47.355	484.21	-1666.8	47.253	380.27	-1619.6	57.597	428.04	-1538.3	665.27	219.82	-1445.1	592	215.21	-1501.8	583.06	238.82	-1467.2	668.82	193.95	-1422.5	514.57	228.38	-1414.8	526.29	364.78	-1410.8	375.27	220.1	-1313.3	323	228.44	-1376.8	306.03	226.04	-1348.1	392.16	223.06	-1256.6	132.73	247.49	-1235.9	143.24	339.52	-1298.4	65.562	309.17	-1273.6	55.054	340.66	-1284.2	39.351	281.54	-1134.5	114.35	212.71	-1101.2	149.07	317.34	-1068	181.84	252.65	-1616.5	1490.6	384.82	-1671.2	1226.8	373.77
3	0.0083333	NaN	NaN	NaN	-1509.6	1436.2	515.82	-1538.5	1433.8	216.91	-1504.7	1741.3	362.59	NaN	NaN	NaN	NaN	NaN	NaN	NaN	NaN	NaN	NaN	NaN	NaN	-1565.6	938.2	561.62	-1532.8	929.28	173.37	-1547.4	1099.8	530.24	-1563.2	1115	209	-1700.3	1020.7	357.12	NaN	NaN	NaN	-1586.8	588.78	488.4	-1665.3	616.6	499	-1573.3	674.89	518.41	-1643.2	520.5	477.17	NaN	NaN	NaN	-1760.1	372.59	476.37	-1710	294.8	465.19	-1788	300.82	464.07	NaN	NaN	NaN	-1813.7	107.84	441.46	-1775.3	119.05	356.65	-1875	97.247	389.25	-1864.5	62.893	362.84	-1876.4	69.744	426.23	-1719.4	47.462	484.34	-1666.6	47.178	380.33	-1619.4	57.252	428.14	-1532.5	664.74	219.33	-1439.5	591.71	215.12	-1496.3	582.67	238.4	-1462.1	668.81	193.7	-1417.1	514.18	228.53	-1409.6	525.92	364.6	-1405.8	374.63	220.11	-1308.7	321.77	229.03	-1372.3	305.16	226.23	-1343.1	391.11	223.54	-1253.5	131.2	248.38	-1233.2	141.7	340.25	-1295.6	64.457	309.95	-1270.8	54.041	341.61	-1281.4	38.077	282.52	-1131.2	112.38	214.12	-1098.3	147.38	318.68	-1064.8	179.95	254.12	-1611.4	1489.9	384.43	-1666.1	1226	373.27
4	0.0125	NaN	NaN	NaN	-1504.4	1435.5	515.4	-1533.3	1433.1	216.43	-1499.3	1740.6	362.16	NaN	NaN	NaN	NaN	NaN	NaN	NaN	NaN	NaN	NaN	NaN	NaN	-1560.2	937.64	561.33	-1526.7	928.55	173.09	-1542	1099.2	529.74	-1557.8	1114.2	208.52	-1694.9	1020	356.7	NaN	NaN	NaN	-1582.4	588.1	488.34	-1660.3	616.1	498.48	-1568.1	674.28	518.05	-1638.1	519.74	476.81	NaN	NaN	NaN	-1756.2	373.12	476.11	-1707.2	294.79	464.91	-1785	301.47	463.81	-1692.8	365.36	479.79	-1812.6	109.23	441.37	-1774.8	119.87	356.53	-1874.3	98.577	389.22	-1864.2	64.182	362.78	-1876	71.027	426.15	-1719.1	47.575	484.45	-1666.3	47.1	380.38	-1619.1	56.897	428.25	-1526.5	664.18	218.85	-1433.8	591.4	215.05	-1490.6	582.27	237.99	-1456.8	668.74	193.49	-1411.5	513.77	228.7	-1404.1	525.59	364.43	-1400.6	373.97	220.15	-1304.1	320.47	229.64	-1367.7	304.27	226.44	-1338	390	224.03	-1250.4	129.6	249.27	-1230.4	140.06	341	-1292.8	63.375	310.71	-1268.2	53.017	342.54	-1278.7	36.817	283.47	-1127.8	110.27	215.55	-1095.4	145.51	320.03	-1061.7	177.87	255.6	-1606	1489.2	384.01	-1660.7	1225.2	372.75
5	0.016667	NaN	NaN	NaN	-1499	1434.7	514.96	-1528	1432.5	215.94	-1493.8	1739.9	361.73	NaN	NaN	NaN	NaN	NaN	NaN	NaN	NaN	NaN	NaN	NaN	NaN	-1554.7	937.05	561	-1520.5	927.84	172.79	-1536.4	1098.6	529.22	-1552.2	1113.5	208.02	-1689.3	1019.2	356.28	NaN	NaN	NaN	-1577.7	587.35	488.26	-1655.1	615.55	497.92	-1562.7	673.64	517.67	-1632.7	518.95	476.44	NaN	NaN	NaN	-1752.2	373.69	475.85	-1704.3	294.79	464.64	-1781.8	302.15	463.54	-1689.2	365.24	479.44	-1811.4	110.72	441.27	-1774.2	120.74	356.41	-1873.7	100.02	389.17	-1863.8	65.582	362.71	-1875.6	72.423	426.07	-1718.9	47.693	484.54	-1666.1	47.019	380.45	-1618.8	56.535	428.37	-1520.3	663.61	218.41	-1427.8	591.07	215.01	-1484.7	581.85	237.63	-1451.1	668.61	193.33	-1405.7	513.33	228.9	-1398.4	525.29	364.26	-1395.4	373.3	220.22	-1299.4	319.11	230.26	-1363.1	303.34	226.68	-1332.8	388.84	224.55	-1247.4	127.96	250.15	-1227.7	138.34	341.77	-1290.1	62.334	311.44	-1265.6	51.995	343.43	-1276.1	35.588	284.38	-1124.5	108.04	216.96	-1092.6	143.45	321.37	-1058.5	175.6	257.09	-1600.6	1488.5	383.58	-1655.2	1224.5	372.22
6	0.020833	NaN	NaN	NaN	-1493.4	1433.9	514.5	-1522.5	1431.9	215.43	-1488.2	1739.2	361.3	NaN	NaN	NaN	NaN	NaN	NaN	NaN	NaN	NaN	NaN	NaN	NaN	-1549.1	936.45	560.66	-1514.3	927.13	172.48	-1530.6	1098	528.68	-1546.5	1112.7	207.5	-1683.6	1018.4	355.86	NaN	NaN	NaN	-1572.9	586.54	488.16	-1649.7	614.97	497.33	-1557.2	672.98	517.26	-1627.2	518.12	476.06	NaN	NaN	NaN	-1748.1	374.27	475.58	-1701.3	294.81	464.36	-1778.5	302.87	463.27	-1685.6	365.16	479.1	-1810.1	112.33	441.17	-1773.5	121.65	356.29	-1872.9	101.59	389.13	-1863.4	67.102	362.63	-1875.1	73.94	425.97	-1718.6	47.82	484.62	-1665.8	46.936	380.51	-1618.5	56.169	428.48	-1513.9	663.02	217.99	-1421.7	590.71	214.99	-1478.6	581.43	237.3	-1445.1	668.42	193.22	-1399.7	512.86	229.11	-1392.5	525.04	364.11	-1390.1	372.62	220.32	-1294.6	317.68	230.88	-1358.4	302.39	226.95	-1327.5	387.64	225.07	-1244.4	126.27	251.02	-1225.1	136.54	342.53	-1287.5	61.355	312.14	-1263.3	50.988	344.28	-1273.6	34.412	285.25	-1121.3	105.67	218.35	-1089.8	141.19	322.69	-1055.3	173.14	258.57	-1595	1487.8	383.13	-1649.6	1223.7	371.67
7	0.025	NaN	NaN	NaN	-1487.8	1433.1	514.01	-1516.9	1431.3	214.91	-1482.6	1738.5	360.87	NaN	NaN	NaN	NaN	NaN	NaN	NaN	NaN	NaN	NaN	NaN	NaN	-1543.3	935.83	560.29	-1508	926.44	172.17	-1524.8	1097.4	528.13	-1540.7	1112	206.97	-1677.8	1017.6	355.45	NaN	NaN	NaN	-1567.8	585.68	488.04	-1644.2	614.36	496.71	-1551.5	672.28	516.83	-1621.4	517.27	475.67	NaN	NaN	NaN	-1743.8	374.89	475.32	-1698.2	294.86	464.09	-1775	303.63	462.98	-1681.9	365.13	478.77	-1808.7	114.03	441.06	-1772.7	122.6	356.18	-1872.1	103.28	389.08	-1863	68.751	362.53	-1874.6	75.588	425.87	-1718.4	47.955	484.67	-1665.5	46.852	380.59	-1618.2	55.802	428.6	-1507.5	662.43	217.61	-1415.4	590.33	215.01	-1472.3	580.99	237.02	-1438.9	668.17	193.16	-1393.6	512.38	229.34	-1386.4	524.83	363.97	-1384.8	371.95	220.46	-1289.9	316.2	231.51	-1353.8	301.43	227.24	-1322.3	386.41	225.61	-1241.4	124.55	251.85	-1222.5	134.67	343.29	-1285.1	60.455	312.8	-1261	50.011	345.07	-1271.4	33.309	286.06	-1118.2	103.2	219.71	-1087	138.75	323.99	-1052.3	170.49	260.02	-1589.3	1487.1	382.67	-1643.9	1222.9	371.11
8	0.029167	NaN	NaN	NaN	-1482	1432.4	513.5	-1511.3	1430.7	214.37	-1477	1737.8	360.44	NaN	NaN	NaN	NaN	NaN	NaN	NaN	NaN	NaN	NaN	NaN	NaN	-1537.4	935.2	559.89	-1501.7	925.77	171.84	-1518.8	1096.7	527.57	-1534.8	1111.3	206.43	-1671.9	1016.9	355.04	NaN	NaN	NaN	-1562.5	584.77	487.89	-1638.4	613.7	496.07	-1545.6	671.56	516.38	-1615.5	516.38	475.27	NaN	NaN	NaN	-1739.5	375.52	475.07	-1695	294.93	463.83	-1771.4	304.42	462.7	-1678.1	365.18	478.46	-1807.3	115.82	440.95	-1771.8	123.59	356.07	-1871.3	105.12	389.02	-1862.5	70.541	362.42	-1874.1	77.376	425.76	-1718.1	48.104	484.7	-1665.2	46.766	380.66	-1617.8	55.436	428.73	-1500.9	661.83	217.27	-1408.9	589.92	215.07	-1466	580.55	236.79	-1432.5	667.86	193.15	-1387.3	511.87	229.59	-1380	524.67	363.85	-1379.5	371.27	220.63	-1285.2	314.67	232.14	-1349.2	300.46	227.55	-1317	385.15	226.15	-1238.6	122.82	252.66	-1219.9	132.75	344.05	-1282.8	59.653	313.4	-1259	49.077	345.81	-1269.3	32.298	286.81	-1115.3	100.62	221.02	-1084.4	136.13	325.24	-1049.2	167.64	261.43	-1583.5	1486.4	382.19	-1638.1	1222.2	370.54
